<svg xmlns="http://www.w3.org/2000/svg" width="113" height="28" viewBox="0 0 113 28" fill="none"><path d="M20.8252 12.3637C21.4063 12.3637 21.8774 11.8925 21.8774 11.3114C21.8774 10.7303 21.4063 10.2592 20.8252 10.2592C20.2441 10.2592 19.7729 10.7303 19.7729 11.3114C19.7729 11.8925 20.2441 12.3637 20.8252 12.3637Z" stroke="#B157FF" stroke-width="0.743272" stroke-miterlimit="10"></path><path d="M21.9307 16.6276C22.6544 16.6276 23.2412 16.0408 23.2412 15.317C23.2412 14.5932 22.6544 14.0065 21.9307 14.0065C21.2069 14.0065 20.6201 14.5932 20.6201 15.317C20.6201 16.0408 21.2069 16.6276 21.9307 16.6276Z" fill="#B157FF"></path><path d="M21.1401 12.2829L21.614 14.1032" stroke="#B157FF" stroke-width="0.743272" stroke-miterlimit="10"></path><path d="M25.9575 15.2587C26.5387 15.2587 27.0098 14.7876 27.0098 14.2065C27.0098 13.6253 26.5387 13.1542 25.9575 13.1542C25.3764 13.1542 24.9053 13.6253 24.9053 14.2065C24.9053 14.7876 25.3764 15.2587 25.9575 15.2587Z" stroke="#B157FF" stroke-width="0.743272" stroke-miterlimit="10"></path><path d="M24.9859 14.5209L23.1655 14.9948" stroke="#B157FF" stroke-width="0.743272" stroke-miterlimit="10"></path><path d="M17.8853 17.4834C18.4664 17.4834 18.9375 17.0123 18.9375 16.4311C18.9375 15.85 18.4664 15.3789 17.8853 15.3789C17.3041 15.3789 16.833 15.85 16.833 16.4311C16.833 17.0123 17.3041 17.4834 17.8853 17.4834Z" stroke="#B157FF" stroke-width="0.743272" stroke-miterlimit="10"></path><path d="M18.8569 16.1168L20.6773 15.6429" stroke="#B157FF" stroke-width="0.743272" stroke-miterlimit="10"></path><path d="M23.0342 20.3739C23.6153 20.3739 24.0864 19.9028 24.0864 19.3217C24.0864 18.7405 23.6153 18.2694 23.0342 18.2694C22.453 18.2694 21.9819 18.7405 21.9819 19.3217C21.9819 19.9028 22.453 20.3739 23.0342 20.3739Z" stroke="#B157FF" stroke-width="0.743272" stroke-miterlimit="10"></path><path d="M22.72 18.3503L22.2461 16.5299" stroke="#B157FF" stroke-width="0.743272" stroke-miterlimit="10"></path><path d="M17.3149 21.8428C17.8961 21.8428 18.3672 21.3717 18.3672 20.7906C18.3672 20.2095 17.8961 19.7383 17.3149 19.7383C16.7338 19.7383 16.2627 20.2095 16.2627 20.7906C16.2627 21.3717 16.7338 21.8428 17.3149 21.8428Z" stroke="#B157FF" stroke-width="0.743272" stroke-miterlimit="10"></path><path d="M20.9297 24.1494C21.6535 24.1494 22.2402 23.5627 22.2402 22.8389C22.2402 22.1151 21.6535 21.5284 20.9297 21.5284C20.2059 21.5284 19.6191 22.1151 19.6191 22.8389C19.6191 23.5627 20.2059 24.1494 20.9297 24.1494Z" fill="#B157FF"></path><path d="M18.2246 21.2544L19.8473 22.2045" stroke="#B157FF" stroke-width="0.743272" stroke-miterlimit="10"></path><path d="M22.5257 20.1134L21.5757 21.7361" stroke="#B157FF" stroke-width="0.743272" stroke-miterlimit="10"></path><path d="M18.8599 27.5398C19.441 27.5398 19.9121 27.0687 19.9121 26.4876C19.9121 25.9064 19.441 25.4353 18.8599 25.4353C18.2787 25.4353 17.8076 25.9064 17.8076 26.4876C17.8076 27.0687 18.2787 27.5398 18.8599 27.5398Z" stroke="#B157FF" stroke-width="0.743272" stroke-miterlimit="10"></path><path d="M19.3237 25.5791L20.2749 23.9564" stroke="#B157FF" stroke-width="0.743272" stroke-miterlimit="10"></path><path d="M24.5435 25.9395C25.1246 25.9395 25.5957 25.4684 25.5957 24.8873C25.5957 24.3061 25.1246 23.835 24.5435 23.835C23.9623 23.835 23.4912 24.3061 23.4912 24.8873C23.4912 25.4684 23.9623 25.9395 24.5435 25.9395Z" stroke="#B157FF" stroke-width="0.743272" stroke-miterlimit="10"></path><path d="M23.634 24.4236L22.0112 23.4724" stroke="#B157FF" stroke-width="0.743272" stroke-miterlimit="10"></path><path d="M5.54932 10.24C6.13046 10.24 6.60157 9.76892 6.60157 9.18778C6.60157 8.60664 6.13046 8.13553 5.54932 8.13553C4.96818 8.13553 4.49707 8.60664 4.49707 9.18778C4.49707 9.76892 4.96818 10.24 5.54932 10.24Z" stroke="#B157FF" stroke-width="0.743272" stroke-miterlimit="10"></path><path d="M6.65331 14.5029C7.3771 14.5029 7.96385 13.9162 7.96385 13.1924C7.96385 12.4686 7.3771 11.8818 6.65331 11.8818C5.92952 11.8818 5.34277 12.4686 5.34277 13.1924C5.34277 13.9162 5.92952 14.5029 6.65331 14.5029Z" fill="#B157FF"></path><path d="M5.86377 10.1592L6.33768 11.9796" stroke="#B157FF" stroke-width="0.743272" stroke-miterlimit="10"></path><path d="M10.6816 13.1351C11.2628 13.1351 11.7339 12.664 11.7339 12.0829C11.7339 11.5017 11.2628 11.0306 10.6816 11.0306C10.1005 11.0306 9.62939 11.5017 9.62939 12.0829C9.62939 12.664 10.1005 13.1351 10.6816 13.1351Z" stroke="#B157FF" stroke-width="0.743272" stroke-miterlimit="10"></path><path d="M9.71003 12.3972L7.88965 12.8712" stroke="#B157FF" stroke-width="0.743272" stroke-miterlimit="10"></path><path d="M2.60938 15.3599C3.19052 15.3599 3.66163 14.8888 3.66163 14.3076C3.66163 13.7265 3.19052 13.2554 2.60938 13.2554C2.02824 13.2554 1.55713 13.7265 1.55713 14.3076C1.55713 14.8888 2.02824 15.3599 2.60938 15.3599Z" stroke="#B157FF" stroke-width="0.743272" stroke-miterlimit="10"></path><path d="M3.58105 13.9931L5.40144 13.5192" stroke="#B157FF" stroke-width="0.743272" stroke-miterlimit="10"></path><path d="M7.7583 18.2504C8.33945 18.2504 8.81055 17.7793 8.81055 17.1982C8.81055 16.617 8.33945 16.1459 7.7583 16.1459C7.17716 16.1459 6.70605 16.617 6.70605 17.1982C6.70605 17.7793 7.17716 18.2504 7.7583 18.2504Z" stroke="#B157FF" stroke-width="0.743272" stroke-miterlimit="10"></path><path d="M7.44412 16.2267L6.97021 14.4063" stroke="#B157FF" stroke-width="0.743272" stroke-miterlimit="10"></path><path d="M12.2041 18.9221C12.7852 18.9221 13.2564 18.451 13.2564 17.8698C13.2564 17.2887 12.7852 16.8176 12.2041 16.8176C11.623 16.8176 11.1519 17.2887 11.1519 17.8698C11.1519 18.451 11.623 18.9221 12.2041 18.9221Z" stroke="#B157FF" stroke-width="0.743272" stroke-miterlimit="10"></path><path d="M13.3091 23.1848C14.0329 23.1848 14.6196 22.5981 14.6196 21.8743C14.6196 21.1505 14.0329 20.5637 13.3091 20.5637C12.5853 20.5637 11.9985 21.1505 11.9985 21.8743C11.9985 22.5981 12.5853 23.1848 13.3091 23.1848Z" fill="#B157FF"></path><path d="M12.5186 18.8413L12.9925 20.6617" stroke="#B157FF" stroke-width="0.743272" stroke-miterlimit="10"></path><path d="M16.3648 21.0793L14.5444 21.5532" stroke="#B157FF" stroke-width="0.743272" stroke-miterlimit="10"></path><path d="M10.2358 22.6751L12.0562 22.2012" stroke="#B157FF" stroke-width="0.743272" stroke-miterlimit="10"></path><path d="M14.4131 26.9313C14.9942 26.9313 15.4653 26.4601 15.4653 25.879C15.4653 25.2979 14.9942 24.8268 14.4131 24.8268C13.8319 24.8268 13.3608 25.2979 13.3608 25.879C13.3608 26.4601 13.8319 26.9313 14.4131 26.9313Z" stroke="#B157FF" stroke-width="0.743272" stroke-miterlimit="10"></path><path d="M14.0989 24.9087L13.625 23.0883" stroke="#B157FF" stroke-width="0.743272" stroke-miterlimit="10"></path><path d="M2.05225 19.8158C2.63339 19.8158 3.1045 19.3447 3.1045 18.7636C3.1045 18.1824 2.63339 17.7113 2.05225 17.7113C1.47111 17.7113 1 18.1824 1 18.7636C1 19.3447 1.47111 19.8158 2.05225 19.8158Z" stroke="#B157FF" stroke-width="0.743272" stroke-miterlimit="10"></path><path d="M5.64941 22.1527C6.3732 22.1527 6.95995 21.566 6.95995 20.8422C6.95995 20.1184 6.3732 19.5316 5.64941 19.5316C4.92562 19.5316 4.33887 20.1184 4.33887 20.8422C4.33887 21.566 4.92562 22.1527 5.64941 22.1527Z" fill="#B157FF"></path><path d="M2.95752 19.2352L4.57239 20.1987" stroke="#B157FF" stroke-width="0.743272" stroke-miterlimit="10"></path><path d="M7.26885 18.1302L6.3042 19.745" stroke="#B157FF" stroke-width="0.743272" stroke-miterlimit="10"></path><path d="M3.5503 25.5262C4.13144 25.5262 4.60255 25.0551 4.60255 24.474C4.60255 23.8928 4.13144 23.4217 3.5503 23.4217C2.96916 23.4217 2.49805 23.8928 2.49805 24.474C2.49805 25.0551 2.96916 25.5262 3.5503 25.5262Z" stroke="#B157FF" stroke-width="0.743272" stroke-miterlimit="10"></path><path d="M4.021 23.5689L4.98565 21.954" stroke="#B157FF" stroke-width="0.743272" stroke-miterlimit="10"></path><path d="M9.2461 23.972C9.82724 23.972 10.2983 23.5009 10.2983 22.9197C10.2983 22.3386 9.82724 21.8675 9.2461 21.8675C8.66496 21.8675 8.19385 22.3386 8.19385 22.9197C8.19385 23.5009 8.66496 23.972 9.2461 23.972Z" stroke="#B157FF" stroke-width="0.743272" stroke-miterlimit="10"></path><path d="M8.34095 22.4492L6.72607 21.4845" stroke="#B157FF" stroke-width="0.743272" stroke-miterlimit="10"></path><path d="M14.2446 3.6796C14.8258 3.6796 15.2969 3.2085 15.2969 2.62735C15.2969 2.04621 14.8258 1.5751 14.2446 1.5751C13.6635 1.5751 13.1924 2.04621 13.1924 2.62735C13.1924 3.2085 13.6635 3.6796 14.2446 3.6796Z" stroke="#B157FF" stroke-width="0.743272" stroke-miterlimit="10"></path><path d="M15.2451 7.96947C15.9689 7.96947 16.5556 7.38272 16.5556 6.65893C16.5556 5.93514 15.9689 5.34839 15.2451 5.34839C14.5213 5.34839 13.9346 5.93514 13.9346 6.65893C13.9346 7.38272 14.5213 7.96947 15.2451 7.96947Z" fill="#B157FF"></path><path d="M14.5332 3.6066L14.9599 5.43821" stroke="#B157FF" stroke-width="0.743272" stroke-miterlimit="10"></path><path d="M19.2998 6.70621C19.881 6.70621 20.3521 6.23511 20.3521 5.65396C20.3521 5.07282 19.881 4.60172 19.2998 4.60172C18.7187 4.60172 18.2476 5.07282 18.2476 5.65396C18.2476 6.23511 18.7187 6.70621 19.2998 6.70621Z" stroke="#B157FF" stroke-width="0.743272" stroke-miterlimit="10"></path><path d="M18.3204 5.9436L16.4888 6.36922" stroke="#B157FF" stroke-width="0.743272" stroke-miterlimit="10"></path><path d="M11.1733 8.72071C11.7545 8.72071 12.2256 8.2496 12.2256 7.66846C12.2256 7.08732 11.7545 6.61621 11.1733 6.61621C10.5922 6.61621 10.1211 7.08732 10.1211 7.66846C10.1211 8.2496 10.5922 8.72071 11.1733 8.72071Z" stroke="#B157FF" stroke-width="0.743272" stroke-miterlimit="10"></path><path d="M12.1514 7.37993L13.983 6.95319" stroke="#B157FF" stroke-width="0.743272" stroke-miterlimit="10"></path><path d="M16.2446 11.7439C16.8258 11.7439 17.2969 11.2728 17.2969 10.6916C17.2969 10.1105 16.8258 9.63937 16.2446 9.63937C15.6635 9.63937 15.1924 10.1105 15.1924 10.6916C15.1924 11.2728 15.6635 11.7439 16.2446 11.7439Z" stroke="#B157FF" stroke-width="0.743272" stroke-miterlimit="10"></path><path d="M15.956 9.71232L15.5293 7.88071" stroke="#B157FF" stroke-width="0.743272" stroke-miterlimit="10"></path><path d="M9.82227 3.1045C10.4034 3.1045 10.8745 2.63339 10.8745 2.05225C10.8745 1.47111 10.4034 1 9.82227 1C9.24113 1 8.77002 1.47111 8.77002 2.05225C8.77002 2.63339 9.24113 3.1045 9.82227 3.1045Z" stroke="#B157FF" stroke-width="0.743272" stroke-miterlimit="10"></path><path d="M7.68505 6.92491C8.40884 6.92491 8.99559 6.33816 8.99559 5.61437C8.99559 4.89058 8.40884 4.30383 7.68505 4.30383C6.96126 4.30383 6.37451 4.89058 6.37451 5.61437C6.37451 6.33816 6.96126 6.92491 7.68505 6.92491Z" fill="#B157FF"></path><path d="M9.3357 2.94952L8.34521 4.54867" stroke="#B157FF" stroke-width="0.743272" stroke-miterlimit="10"></path><path d="M10.3692 7.27753L8.77002 6.28705" stroke="#B157FF" stroke-width="0.743272" stroke-miterlimit="10"></path><path d="M4.08789 4.50816C4.66904 4.50816 5.14014 4.03705 5.14014 3.45591C5.14014 2.87476 4.66904 2.40366 4.08789 2.40366C3.50675 2.40366 3.03564 2.87476 3.03564 3.45591C3.03564 4.03705 3.50675 4.50816 4.08789 4.50816Z" stroke="#B157FF" stroke-width="0.743272" stroke-miterlimit="10"></path><path d="M4.98535 3.94229L6.5845 4.93278" stroke="#B157FF" stroke-width="0.743272" stroke-miterlimit="10"></path><path d="M6.0332 8.27933L7.02369 6.68018" stroke="#B157FF" stroke-width="0.743272" stroke-miterlimit="10"></path><path d="M19.3105 6.67341C19.8917 6.67341 20.3628 6.2023 20.3628 5.62116C20.3628 5.04002 19.8917 4.56891 19.3105 4.56891C18.7294 4.56891 18.2583 5.04002 18.2583 5.62116C18.2583 6.2023 18.7294 6.67341 19.3105 6.67341Z" stroke="#B157FF" stroke-width="0.743272" stroke-miterlimit="10"></path><path d="M22.9331 8.9644C23.6569 8.9644 24.2436 8.37765 24.2436 7.65386C24.2436 6.93007 23.6569 6.34332 22.9331 6.34332C22.2093 6.34332 21.6226 6.93007 21.6226 7.65386C21.6226 8.37765 22.2093 8.9644 22.9331 8.9644Z" fill="#B157FF"></path><path d="M20.2212 6.08041L21.8484 7.02373" stroke="#B157FF" stroke-width="0.743272" stroke-miterlimit="10"></path><path d="M24.9771 5.0619C25.5582 5.0619 26.0293 4.59079 26.0293 4.00965C26.0293 3.42851 25.5582 2.9574 24.9771 2.9574C24.3959 2.9574 23.9248 3.42851 23.9248 4.00965C23.9248 4.59079 24.3959 5.0619 24.9771 5.0619Z" stroke="#B157FF" stroke-width="0.743272" stroke-miterlimit="10"></path><path d="M24.518 4.92163L23.5747 6.54886" stroke="#B157FF" stroke-width="0.743272" stroke-miterlimit="10"></path><path d="M20.8814 12.3647C21.4625 12.3647 21.9336 11.8936 21.9336 11.3124C21.9336 10.7313 21.4625 10.2602 20.8814 10.2602C20.3002 10.2602 19.8291 10.7313 19.8291 11.3124C19.8291 11.8936 20.3002 12.3647 20.8814 12.3647Z" stroke="#B157FF" stroke-width="0.743272" stroke-miterlimit="10"></path><path d="M21.3408 10.4007L22.2841 8.7735" stroke="#B157FF" stroke-width="0.743272" stroke-miterlimit="10"></path><path d="M26.5571 10.7376C27.1383 10.7376 27.6094 10.2665 27.6094 9.6854C27.6094 9.10426 27.1383 8.63315 26.5571 8.63315C25.976 8.63315 25.5049 9.10426 25.5049 9.6854C25.5049 10.2665 25.976 10.7376 26.5571 10.7376Z" stroke="#B157FF" stroke-width="0.743272" stroke-miterlimit="10"></path><path d="M25.6458 9.226L24.0186 8.28268" stroke="#B157FF" stroke-width="0.743272" stroke-miterlimit="10"></path><path d="M14.2705 15.4968C14.9943 15.4968 15.581 14.9101 15.581 14.1863C15.581 13.4625 14.9943 12.8758 14.2705 12.8758C13.5467 12.8758 12.96 13.4625 12.96 14.1863C12.96 14.9101 13.5467 15.4968 14.2705 15.4968Z" fill="#B157FF"></path><path d="M11.5581 12.6142L13.1853 13.5575" stroke="#B157FF" stroke-width="0.743272" stroke-miterlimit="10"></path><path d="M15.8549 11.4552L14.9116 13.0813" stroke="#B157FF" stroke-width="0.743272" stroke-miterlimit="10"></path><path d="M12.2178 18.8973C12.7989 18.8973 13.27 18.4261 13.27 17.845C13.27 17.2639 12.7989 16.7928 12.2178 16.7928C11.6366 16.7928 11.1655 17.2639 11.1655 17.845C11.1655 18.4261 11.6366 18.8973 12.2178 18.8973Z" stroke="#B157FF" stroke-width="0.743272" stroke-miterlimit="10"></path><path d="M12.6777 16.9343L13.6211 15.3071" stroke="#B157FF" stroke-width="0.743272" stroke-miterlimit="10"></path><path d="M16.9822 15.7585L15.355 14.8152" stroke="#B157FF" stroke-width="0.743272" stroke-miterlimit="10"></path><path d="M35.5276 4.1882C36.0846 4.1882 36.5372 4.63965 36.5372 5.19778V21.5868C36.5372 22.0034 36.8752 22.3404 37.2908 22.3404H43.2426C43.7244 22.3404 44.1152 22.7312 44.1152 23.2129C44.1152 23.6947 43.7244 24.0855 43.2426 24.0855H35.6894C35.0425 24.0855 34.5181 23.561 34.5181 22.9142V5.19665C34.5181 4.63965 34.9706 4.1882 35.5276 4.1882Z" fill="#011D3F"></path><path d="M58.9569 17.1004H47.3484C47.1575 17.1004 47.0093 17.2677 47.0329 17.4564C47.2069 18.8444 47.7909 19.9786 48.7847 20.8591C49.8628 21.8147 51.2239 22.292 52.8702 22.292C53.7967 22.292 54.6479 22.1269 55.4239 21.7957C55.9607 21.5666 56.4481 21.2622 56.8849 20.8838C57.2084 20.603 57.6969 20.6334 57.9787 20.9568L58.1146 21.114C58.3875 21.4273 58.3628 21.9001 58.0607 22.1853C57.4981 22.7176 56.8411 23.141 56.0899 23.4566C55.0971 23.8732 54.0044 24.081 52.8129 24.081C51.2812 24.081 49.9235 23.7542 48.7421 23.1028C47.5596 22.4504 46.6376 21.5475 45.9761 20.3942C45.3136 19.2408 44.9834 17.9359 44.9834 16.4794C44.9834 15.0229 45.3001 13.7179 45.9335 12.5646C46.5668 11.4113 47.4371 10.5129 48.5433 9.86941C49.6495 9.22705 50.8926 8.90475 52.2739 8.90475C53.6541 8.90475 54.8927 9.22705 55.9899 9.86941C57.086 10.5129 57.9473 11.4057 58.5717 12.55C59.1961 13.6943 59.5083 15.0038 59.5083 16.4794L59.5038 16.5804C59.4903 16.8702 59.2489 17.1004 58.9569 17.1004ZM48.6567 12.0087C47.7527 12.86 47.2114 13.9515 47.0317 15.2834C47.0093 15.4496 47.1384 15.5978 47.3069 15.5978H57.1511C57.3813 15.5978 57.5621 15.3946 57.5273 15.1666C57.333 13.8875 56.7973 12.8352 55.9192 12.0087C54.9444 11.0912 53.7293 10.633 52.2739 10.633C50.8365 10.6319 49.6304 11.0912 48.6567 12.0087Z" fill="#011D3F"></path><path d="M73.1121 10.4444C72.6607 10.0008 72.1452 9.64818 71.5691 9.38203L71.5714 9.38091C71.5523 9.37304 71.5343 9.36518 71.5164 9.35732C71.3636 9.28882 71.2053 9.22593 71.0436 9.16978C69.6084 8.64983 68.3978 8.68128 67.3804 8.7363C65.5555 8.83513 64.099 9.33711 63.0198 10.4444C61.9394 11.5517 61.4004 13.1632 61.4004 15.2811V23.1051C61.4004 23.6475 61.8406 24.0877 62.383 24.0877C62.9254 24.0877 63.3656 23.6475 63.3656 23.1051V15.4822C63.3656 14.0043 63.698 12.8555 64.3606 12.0357C65.3084 11.1002 66.583 10.6308 68.1889 10.6308C69.6522 10.6308 70.7774 11.0452 71.5669 11.8728C72.3564 12.7005 72.7505 13.9043 72.7505 15.4822V23.0624C72.7505 23.6284 73.2098 24.0877 73.7758 24.0877C74.3418 24.0877 74.8011 23.6284 74.8011 23.0624V15.28C74.8023 13.1632 74.2385 11.5505 73.1121 10.4444Z" fill="#011D3F"></path><path d="M110.576 6.59032C110.304 6.31856 110.167 5.99176 110.167 5.60995C110.167 5.24722 110.303 4.92941 110.576 4.65764C110.848 4.38588 111.184 4.24887 111.584 4.24887C111.982 4.24887 112.318 4.38026 112.591 4.64304C112.863 4.90583 113 5.21914 113 5.58187C113 5.98166 112.864 6.31631 112.591 6.5892C112.319 6.86097 111.982 6.99797 111.584 6.99797C111.185 6.99797 110.849 6.86209 110.576 6.59032ZM111.57 8.89584C112.104 8.89584 112.536 9.32819 112.536 9.86162V23.1175C112.536 23.6509 112.104 24.0833 111.57 24.0833C111.037 24.0833 110.604 23.6509 110.604 23.1175V9.86162C110.604 9.32819 111.037 8.89584 111.57 8.89584Z" fill="#011D3F"></path><path d="M90.7465 4.25903C90.1895 4.25903 89.7392 4.71048 89.7392 5.26636V11.3452C88.3534 9.84483 86.3691 8.90488 84.1657 8.90488C79.9747 8.90488 76.5776 12.302 76.5776 16.493C76.5776 20.684 79.9747 24.0811 84.1657 24.0811C88.35 24.0811 91.7426 20.6952 91.7538 16.5132C91.7538 16.5098 91.7538 16.5065 91.7538 16.5031V5.26636C91.7538 4.70936 91.3024 4.25903 90.7465 4.25903ZM84.0905 22.2697C81.0382 22.1821 78.5216 20.1719 78.5609 16.466C78.5945 13.261 80.5239 10.7387 84.0905 10.6624C87.1439 10.5972 89.6201 12.8747 89.6201 16.466C89.6201 19.6722 87.4471 22.3663 84.0905 22.2697Z" fill="#011D3F"></path><path d="M108.555 16.4929C108.555 12.3018 105.158 8.90475 100.967 8.90475C96.776 8.90475 93.3789 12.3018 93.3789 16.4929C93.3789 20.6839 96.776 24.081 100.967 24.081C103.169 24.081 105.15 23.1421 106.537 21.644V23.0759C106.537 23.6329 106.989 24.0832 107.544 24.0832C108.101 24.0832 108.552 23.6318 108.552 23.0759V16.713C108.552 16.7073 108.552 16.7029 108.552 16.6972C108.554 16.6287 108.555 16.5614 108.555 16.4929ZM100.892 22.2696C97.8395 22.182 95.3228 20.1718 95.3621 16.4659C95.3958 13.2609 97.3251 10.7386 100.892 10.6622C103.945 10.5971 106.421 12.8746 106.421 16.4659C106.421 19.6721 104.25 22.3661 100.892 22.2696Z" fill="#011D3F"></path></svg>